HIERARCHY
ROOT Hips
{
	OFFSET 0.00000 0.00000 0.00000
	CHANNELS 6 Xposition Yposition Zposition Zrotation Yrotation Xrotation 
	JOINT LHipJoint
	{
		OFFSET 0 0 0
		CHANNELS 3 Zrotation Yrotation Xrotation
		JOINT LeftHip
		{
			OFFSET 1.77779 -1.88989 0.48267
			CHANNELS 3 Zrotation Yrotation Xrotation
			JOINT LeftKnee
			{
				OFFSET 2.53442 -6.96327 0.00000
				CHANNELS 3 Zrotation Yrotation Xrotation
				JOINT LeftAnkle
				{
					OFFSET 2.71068 -7.44755 0.00000
					CHANNELS 3 Zrotation Yrotation Xrotation
					JOINT LeftToe
					{
						OFFSET 0.17992 -0.49431 2.22524
						CHANNELS 3 Zrotation Yrotation Xrotation
						End Site
						{
							OFFSET 0.00000 -0.00000 1.14687
						}
					}
				}
			}
		}
	}
	JOINT RHipJoint
	{
		OFFSET 0 0 0
		CHANNELS 3 Zrotation Yrotation Xrotation
		JOINT RightHip
		{
			OFFSET -1.58469 -1.88989 0.48267
			CHANNELS 3 Zrotation Yrotation Xrotation
			JOINT RightKnee
			{
				OFFSET -2.60386 -7.15404 0.00000
				CHANNELS 3 Zrotation Yrotation Xrotation
				JOINT RightAnkle
				{
					OFFSET -2.73334 -7.50979 0.00000
					CHANNELS 3 Zrotation Yrotation Xrotation
					JOINT RightToe
					{
						OFFSET -0.25618 -0.70384 2.21822
						CHANNELS 3 Zrotation Yrotation Xrotation
						End Site
						{
							OFFSET -0.00000 -0.00000 1.16381
						}
					}
				}
			}
		}
	}
	JOINT lowerback
	{
		OFFSET 0 0 0
		CHANNELS 3 Zrotation Yrotation Xrotation
		JOINT Chest
		{
			OFFSET 0.03410 2.01612 -0.22230
			CHANNELS 3 Zrotation Yrotation Xrotation
			JOINT Chest2
			{
				OFFSET 0.03465 2.03012 0.00937
				CHANNELS 3 Zrotation Yrotation Xrotation
				JOINT lowerneck
				{
					OFFSET 0 0 0
					CHANNELS 3 Zrotation Yrotation Xrotation
					JOINT Neck
					{
						OFFSET -0.00219 1.70459 0.20857
						CHANNELS 3 Zrotation Yrotation Xrotation
						JOINT Head
						{
							OFFSET 0.02518 1.72339 -0.22179
							CHANNELS 3 Zrotation Yrotation Xrotation
							End Site
							{
								OFFSET 0.00282 1.74122 -0.09823
							}
						}
					}
				}
				JOINT LeftCollar
				{
					OFFSET 0 0 0
					CHANNELS 3 Zrotation Yrotation Xrotation
					JOINT LeftShoulder
					{
						OFFSET 3.36358 1.00547 -0.37661
CHANNELS 3 Zrotation Xrotation Yrotation
						JOINT LeftElbow
						{
OFFSET 0 -5.065070 0.000000
CHANNELS 3 Zrotation Xrotation Yrotation
							JOINT LeftWrist
							{
OFFSET 0 -3.601960 0.000000
CHANNELS 3 Zrotation Xrotation Yrotation
								JOINT lhand
								{
									OFFSET 0 0 0
CHANNELS 3 Zrotation Xrotation Yrotation
									JOINT LFingers
									{
OFFSET 0 -0.450350 0.000000
CHANNELS 3 Zrotation Xrotation Yrotation
										End Site
										{
OFFSET 0 -0.363080 0.000000
										}
									}
								}
								JOINT LThumb
								{
OFFSET 0 0.000000 0.000000
CHANNELS 3 Zrotation Xrotation Yrotation
									End Site
									{
OFFSET 0 -0.368620 0.368620
									}
								}
							}
						}
					}
				}
				JOINT RightCollar
				{
					OFFSET 0 0 0
					CHANNELS 3 Zrotation Yrotation Xrotation
					JOINT RightShoulder
					{
						OFFSET -3.50159 0.80383 -0.71526
CHANNELS 3 Zrotation Xrotation Yrotation
						JOINT RightElbow
						{
OFFSET 0 -5.363940 0.000000
CHANNELS 3 Zrotation Xrotation Yrotation
							JOINT RightWrist
							{
OFFSET 0 -3.580350 0.000000
CHANNELS 3 Zrotation Xrotation Yrotation
								JOINT rhand
								{
									OFFSET 0 0 0
CHANNELS 3 Zrotation Xrotation Yrotation
									JOINT RFingers
									{
OFFSET 0 -0.663750 0.000000
CHANNELS 3 Zrotation Xrotation Yrotation
										End Site
										{
OFFSET 0 -0.535130 0.000000
										}
									}
								}
								JOINT RThumb
								{
OFFSET 0 0.000000 0.000000
CHANNELS 3 Zrotation Xrotation Yrotation
									End Site
									{
OFFSET 0 -0.543300 0.543300
									}
								}
							}
						}
					}
				}
			}
		}
	}
}
MOTION
Frames: 10
Frame Time: 0.008333333333333333
0.176862 18.012530 8.477885 -6.865179 -4.005553 -2.425553 0.000000 0.000000 0.000000 -11.133073 -6.739609 -27.130327 9.640908 17.201753 58.279611 0.175763 -1.537954 -7.533661 0.079460 -1.814698 -4.993876 0.000000 0.000000 0.000000 34.111785 7.787263 -3.452291 -2.405775 -9.664517 27.897060 -0.856831 0.234097 -17.419758 -0.296518 -3.501244 9.677418 4.991749 1.165237 10.917728 2.463144 2.300530 0.646996 -0.579529 1.039515 -5.357338 -1.279855 -2.780680 -16.368504 -0.660468 -3.394663 24.234010 -0.486149 -1.756105 10.483298 0.000000 0.000000 0.000000 3.385699 2.649672 -25.867026 12.784677 -20.970746 2.375775 30.783890 10.967525 -21.780799 0.000000 0.000000 0.000000 -7.125000 0.000000 0.000000 2.152326 54.910784 -0.524062 0.000000 0.000000 0.000000 -1.360668 -7.192597 10.163423 -13.217523 -21.604834 -2.532974 -18.867959 -2.419075 -18.989078 0.000000 0.000000 0.000000 7.125000 0.000000 0.000000 6.066863 10.084221 4.937980
0.176725 18.009273 8.599023 -6.973554 -4.083566 -2.341537 0.000000 0.000000 0.000000 -10.964903 -6.785567 -27.433029 9.222203 16.945153 56.850365 0.183011 -0.884955 -7.828860 0.065394 -1.647145 -4.531572 0.000000 0.000000 0.000000 34.275816 7.737897 -3.005678 -2.389725 -9.634633 27.801425 -0.894496 0.287275 -17.782581 -0.301523 -3.530600 9.759565 5.139998 1.218421 10.888848 2.469238 2.389759 0.607467 -0.668948 1.078882 -5.373335 -1.317270 -2.788875 -16.271119 -0.617987 -3.408236 24.207514 -0.464727 -1.760836 10.456531 0.000000 0.000000 0.000000 3.310875 2.971786 -25.759834 12.815294 -21.015897 2.386690 30.821197 11.579484 -22.553617 0.000000 0.000000 0.000000 -7.125000 0.000000 0.000000 2.030368 55.776154 -0.534758 0.000000 0.000000 0.000000 -1.406988 -7.236876 10.549560 -13.524335 -22.049839 -2.647424 -18.805273 -2.743768 -19.159674 0.000000 0.000000 0.000000 7.125000 0.000000 0.000000 6.114313 9.915581 4.999254
0.177339 18.013233 8.717787 -7.038714 -4.168290 -2.268042 0.000000 0.000000 0.000000 -10.848309 -6.892506 -27.644611 8.772815 16.655176 55.294779 0.190905 -0.114574 -8.232819 0.063817 -1.627800 -4.478284 0.000000 0.000000 0.000000 34.381033 7.651454 -2.568242 -2.370566 -9.598665 27.686599 -0.935438 0.410342 -18.148757 -0.291148 -3.468085 9.584918 5.281549 1.283994 10.938670 2.440485 2.499248 0.552739 -0.796518 1.126279 -5.446760 -1.333207 -2.804868 -16.214686 -0.576286 -3.437950 24.186030 -0.450112 -1.770898 10.439094 0.000000 0.000000 0.000000 3.284486 3.346433 -25.778829 12.912939 -21.159410 2.421845 30.853650 12.049825 -23.136625 0.000000 0.000000 0.000000 -7.125000 0.000000 0.000000 1.943044 56.430073 -0.544753 0.000000 0.000000 0.000000 -1.458423 -7.334928 10.916982 -13.717172 -22.328939 -2.719766 -18.677979 -2.960083 -18.514524 0.000000 0.000000 0.000000 7.125000 0.000000 0.000000 6.163425 10.599796 4.953411
0.179364 18.019508 8.834341 -7.025258 -4.247669 -2.206024 0.000000 0.000000 0.000000 -10.828316 -7.071409 -27.759041 8.297201 16.332448 53.624464 0.200853 0.760675 -8.778817 0.076140 -1.778824 -4.894973 0.000000 0.000000 0.000000 34.384306 7.509953 -2.148421 -2.346021 -9.552247 27.538752 -0.977336 0.599887 -18.496515 -0.260673 -3.283420 9.069018 5.394506 1.361885 11.042316 2.359349 2.621723 0.515087 -0.966374 1.179932 -5.529922 -1.314994 -2.830630 -16.318157 -0.540024 -3.487221 24.225149 -0.449249 -1.786774 10.473792 0.000000 0.000000 0.000000 3.322877 3.676222 -25.944786 13.035428 -21.339159 2.466138 30.927119 12.215452 -23.212114 0.000000 0.000000 0.000000 -7.125000 0.000000 0.000000 2.007668 56.530078 -0.567224 0.000000 0.000000 0.000000 -1.506179 -7.589781 11.177633 -13.751598 -22.378545 -2.732845 -18.625172 -3.174051 -17.559800 0.000000 0.000000 0.000000 7.125000 0.000000 0.000000 6.149778 11.594704 4.815394
0.180240 18.007324 8.949610 -6.952303 -4.248618 -2.116216 0.000000 0.000000 0.000000 -10.857206 -7.307783 -27.836082 7.802858 15.968475 51.843196 0.211140 1.417196 -9.323936 0.098537 -2.019502 -5.559665 0.000000 0.000000 0.000000 34.331121 7.354997 -1.759498 -2.302613 -9.469589 27.275895 -1.001047 0.627027 -18.713847 -0.216609 -2.991455 8.255352 5.390494 1.410837 11.061649 2.278077 2.682130 0.527197 -1.058881 1.209041 -5.520656 -1.202936 -2.858353 -16.448674 -0.649602 -3.525741 24.202606 -0.514106 -1.806910 10.485976 0.000000 0.000000 0.000000 3.345785 3.885456 -26.092082 13.119107 -21.461504 2.496707 31.133581 11.899338 -22.705661 0.000000 0.000000 0.000000 -7.125000 0.000000 0.000000 2.347273 56.014944 -0.633102 0.000000 0.000000 0.000000 -1.530473 -8.038819 11.270942 -13.706512 -22.313616 -2.715700 -19.347207 -4.192137 -19.055157 0.000000 0.000000 0.000000 7.125000 0.000000 0.000000 5.760271 9.951905 4.697863
0.179987 17.997960 9.071029 -6.900925 -4.268991 -2.032764 0.000000 0.000000 0.000000 -10.854832 -7.496134 -27.855259 7.302519 15.574931 49.998325 0.194929 1.965371 -9.305078 0.054870 -1.297205 -3.570115 0.000000 0.000000 0.000000 34.302692 7.225410 -1.355558 -2.262126 -9.391800 27.028978 -1.020144 0.649092 -18.887359 -0.195863 -2.849504 7.860056 5.354910 1.461840 10.970739 2.242522 2.734388 0.567189 -1.080404 1.238355 -5.424262 -1.187794 -2.879772 -16.479146 -0.668618 -3.553498 24.122148 -0.526686 -1.820485 10.461770 0.000000 0.000000 0.000000 3.272288 4.055534 -26.051795 13.136466 -21.486881 2.503032 31.187978 11.453044 -22.080406 0.000000 0.000000 0.000000 -7.125000 0.000000 0.000000 2.533378 55.331446 -0.641732 0.000000 0.000000 0.000000 -1.617551 -8.317700 11.619641 -13.836298 -22.499923 -2.765388 -19.916254 -5.325489 -20.546824 0.000000 0.000000 0.000000 7.125000 0.000000 0.000000 5.492848 8.324584 4.657621
0.179621 17.994703 9.195560 -6.915958 -4.307006 -1.956142 0.000000 0.000000 0.000000 -10.766139 -7.661825 -27.853830 6.802159 15.157825 48.112820 0.162584 2.440674 -8.914044 0.047982 0.243781 0.675980 0.000000 0.000000 0.000000 34.344996 7.101362 -0.924950 -2.224014 -9.317864 26.794838 -1.038136 0.664990 -19.051006 -0.194071 -2.836194 7.823038 5.382330 1.517947 10.821018 2.233273 2.796896 0.629372 -1.108324 1.273492 -5.269333 -1.219552 -2.893825 -16.446678 -0.613096 -3.578174 23.998987 -0.502944 -1.828233 10.412545 0.000000 0.000000 0.000000 3.181981 4.173980 -25.960592 13.125403 -21.470687 2.498972 31.106525 11.229038 -21.822559 0.000000 0.000000 0.000000 -7.125000 0.000000 0.000000 2.494088 55.026227 -0.612491 0.000000 0.000000 0.000000 -1.720176 -8.483423 12.112383 -14.099514 -22.875963 -2.867270 -20.285686 -6.244690 -21.463803 0.000000 0.000000 0.000000 7.125000 0.000000 0.000000 5.321854 7.318603 4.621131
0.179986 18.001342 9.321116 -7.046328 -4.363983 -1.887856 0.000000 0.000000 0.000000 -10.530275 -7.822836 -27.860250 6.306868 14.718491 46.199723 0.120343 2.861624 -8.254459 0.171495 2.612262 7.202893 0.000000 0.000000 0.000000 34.508634 6.966833 -0.453442 -2.188193 -9.247536 26.572836 -1.057834 0.672796 -19.232153 -0.210559 -2.954017 8.150751 5.563550 1.582585 10.646874 2.238016 2.886995 0.712467 -1.209658 1.320184 -5.070822 -1.263106 -2.898421 -16.372775 -0.484695 -3.605824 23.839215 -0.450635 -1.829838 10.343968 0.000000 0.000000 0.000000 3.140032 4.221838 -25.926814 13.113657 -21.453470 2.494667 30.881167 11.563682 -22.405907 0.000000 0.000000 0.000000 -7.125000 0.000000 0.000000 2.131794 55.626354 -0.555805 0.000000 0.000000 0.000000 -1.800572 -8.566373 12.677419 -14.482309 -23.419842 -3.017265 -20.383591 -6.634342 -21.226627 0.000000 0.000000 0.000000 7.125000 0.000000 0.000000 5.240947 7.550672 4.526289
0.182244 17.999637 9.435382 -7.055116 -4.314524 -1.729330 0.000000 0.000000 0.000000 -10.429037 -8.152689 -27.923044 5.811647 14.236385 44.207814 0.096122 3.283766 -8.003865 0.240387 3.141999 8.675361 0.000000 0.000000 0.000000 34.533932 6.840087 -0.075330 -2.137508 -9.146496 26.254985 -1.066523 0.553481 -19.348723 -0.225925 -3.058727 8.442355 5.657124 1.600876 10.587302 2.190591 2.916864 0.682815 -1.313867 1.332167 -5.059734 -1.219995 -2.878617 -16.242498 -0.472338 -3.593227 23.665912 -0.447268 -1.819523 10.255547 0.000000 0.000000 0.000000 3.126620 4.418274 -25.690819 13.255818 -21.660696 2.547018 30.334113 14.084780 -25.984436 0.000000 0.000000 0.000000 -7.125000 0.000000 0.000000 0.487062 59.412521 -0.108568 0.000000 0.000000 0.000000 -1.864071 -8.687887 13.158525 -14.816582 -23.889187 -3.151764 -20.422669 -6.898275 -20.663477 0.000000 0.000000 0.000000 7.125000 0.000000 0.000000 5.172802 8.131503 4.407819
0.183717 17.994493 9.551173 -7.082285 -4.238100 -1.559269 0.000000 0.000000 0.000000 -10.309342 -8.500575 -27.957065 5.322286 13.728858 42.179421 0.094684 3.501925 -8.159539 0.177594 2.567120 7.083536 0.000000 0.000000 0.000000 34.595926 6.717145 0.333588 -2.081956 -9.034264 25.902974 -1.076447 0.334520 -19.510143 -0.215574 -2.986183 8.240487 5.727510 1.608289 10.547356 2.169740 2.935250 0.604451 -1.377404 1.336672 -5.114336 -1.195387 -2.874020 -16.080521 -0.494397 -3.588821 23.538491 -0.454108 -1.818761 10.177522 0.000000 0.000000 0.000000 3.091794 4.685375 -25.558152 13.278223 -21.693479 2.555229 30.075024 14.894365 -27.263694 0.000000 0.000000 0.000000 -7.125000 0.000000 0.000000 -0.157851 60.753677 0.060985 0.000000 0.000000 0.000000 -1.959103 -8.797997 13.570636 -15.060336 -24.229831 -3.250835 -20.383128 -7.241195 -20.281774 0.000000 0.000000 0.000000 7.125000 0.000000 0.000000 5.169392 8.534910 4.363078
